<?xml version="1.0" encoding="UTF-8"?>
<svg width="40px" height="40px" viewBox="0 0 40 40" version="1.1" xmlns="http://www.w3.org/2000/svg" xmlns:xlink="http://www.w3.org/1999/xlink">
    <title>icons/ instagram</title>
    <g id="1.-IS_landingpage" stroke="none" stroke-width="1" fill="none" fill-rule="evenodd">
        <g id="1.1.0.Desktop_HD" transform="translate(-1272, -42)" fill="#FFFFFF" fill-rule="nonzero">
            <g id="icons/-instagram" transform="translate(1277.7958, 47.5215)">
                <g id="instagram-2" transform="translate(-0.0816, 0.1928)">
                    <path d="M14.4636536,6.73194938 C10.3425956,6.73194938 7.00627044,10.0719076 7.00627044,14.1893325 C7.00627044,18.3103905 10.3462287,21.6467157 14.4636536,21.6467157 C18.5847115,21.6467157 21.9210367,18.3067574 21.9210367,14.1893325 C21.9210367,10.0682746 18.5810785,6.73194938 14.4636536,6.73194938 Z M14.4636536,19.0297288 C11.7885384,19.0297288 9.62325728,16.8632367 9.62325728,14.1893325 C9.62325728,11.5154283 11.7897494,9.34893622 14.4636536,9.34893622 C17.1375578,9.34893622 19.3040504,11.5154283 19.3040504,14.1893325 C19.3052609,16.8632367 17.1387688,19.0297288 14.4636536,19.0297288 L14.4636536,19.0297288 Z" id="Shape"></path>
                    <path d="M20.3941487,-0.102413601 C17.7478423,-0.22585777 11.1932004,-0.219865334 8.54449705,-0.102413601 C6.21699392,0.00664872239 4.16394919,0.56873916 2.50880922,2.22384981 C-0.25734795,4.98995797 0.0962120004,8.71725277 0.0962120004,14.1835523 C0.0962120004,19.77809 -0.215400159,23.4190937 2.50880922,26.1432548 C5.28575296,28.9189509 9.06704667,28.5558093 14.4687236,28.5558093 C20.010626,28.5558093 21.9234453,28.5594048 23.8830063,27.8007624 C26.5472903,26.7664681 28.5583872,24.3850743 28.7549426,20.1076739 C28.8795875,17.460216 28.8723964,10.9068887 28.7549426,8.25823222 C28.517638,3.20900618 25.8078107,0.14687171 20.3941487,-0.102413601 Z M24.5829352,24.3131651 C22.7695921,26.126476 20.2539232,25.9646802 14.4339669,25.9646802 C8.44142533,25.9646802 6.03841618,26.0533683 4.28499853,24.2951878 C2.26551203,22.2853249 2.63105707,19.0577992 2.63105707,14.1643765 C2.63105707,7.54273544 1.95150286,2.77395537 8.59723141,2.43358505 C10.124131,2.37965313 10.5735716,2.36167582 14.4171877,2.36167582 L14.4711206,2.39763043 C20.8579714,2.39763043 25.8689346,1.72887465 26.1697602,8.37328698 C26.2380752,9.88937313 26.2536558,10.3447982 26.2536558,14.1823538 C26.2524573,20.1052769 26.365117,22.5226254 24.5829352,24.3131651 Z" id="Shape"></path>
                    <circle id="Oval" cx="21.6547016" cy="6.46561427" r="1.86434578"></circle>
                </g>
            </g>
        </g>
    </g>
</svg>