<?xml version="1.0" encoding="UTF-8"?>
<svg width="145px" height="40px" viewBox="0 0 145 40" version="1.1" xmlns="http://www.w3.org/2000/svg" xmlns:xlink="http://www.w3.org/1999/xlink">
    <title>Shape</title>
    <g id="Symbols" stroke="none" stroke-width="1" fill="none" fill-rule="evenodd">
        <g id="logo" fill="#FFFFFF">
            <path d="M110.867423,32 L110.867423,36.8953453 C110.867423,38.6865202 111.620911,39.1191816 112.928849,39.1191816 C114.208649,39.1191816 115.118509,38.4923431 115.118509,36.8953453 L115.118509,32 L116,32 L116,39.8506144 L115.118509,39.8506144 L115.118509,38.1790449 L115.061541,38.1790449 C114.734499,39.2087646 114.080646,40 112.587738,40 C111.023794,40 110,39.2983476 110,37.149083 L110,32 L110.867423,32 Z M93.9106838,32 C96.1213156,32 96.7529883,33.0548458 96.7939713,34.6520887 L95.9426832,34.6520887 L95.9290964,34.4322301 C95.9014775,33.3626478 95.4074542,32.8059897 93.9106838,32.8059897 C92.67518,32.8059897 92.0570941,33.2162339 92.0570941,34.0514588 L92.0570941,34.2565809 C92.0570941,34.9265355 92.3919826,35.2136547 93.1287632,35.3562116 L94.9403816,35.6482263 C96.3547405,35.8828213 97,36.4834512 97,37.7286826 L97,38.0219859 C97,39.2527185 95.846685,40 94.0755067,40 C92.3455342,40 91.040983,39.3698972 91,37.2894408 L91.8512881,37.2894408 L91.8512881,37.5090617 C91.8786844,38.8277378 92.7985745,39.1940103 94.0755067,39.1940103 C95.4210409,39.1940103 96.1487119,38.7985026 96.1487119,37.9780141 L96.1487119,37.7876285 C96.1487119,37.032236 95.8468468,36.7144949 94.9494737,36.5447483 L93.1144109,36.2490938 C91.9060806,36.0439717 91.2060287,35.4870759 91.2060287,34.3003149 L91.2060287,34.0072494 C91.2060287,32.688811 92.3865172,32 93.9106838,32 Z M128,29 L128,39.8512145 L127.06886,39.8512145 L127.06886,37.9039811 L127.008912,37.9039811 C126.693333,39.0930595 125.86698,40 124.214761,40 C122.006684,40 121,38.3648062 121,36.1945151 L121,35.6890784 C121,33.5187873 122.006684,31.8835935 124.214761,31.8835935 C125.86698,31.8835935 126.693333,32.790534 127.008912,33.9649027 L127.06886,33.9649027 L127.06886,29 L128,29 Z M141.492615,32 C143.955484,32 145,33.6117416 145,35.6924357 L145,36.2930655 C145,38.3882584 143.955484,40 141.492615,40 C139.044758,40 138,38.3882584 138,36.2930655 L138,35.6924357 C138,33.6117416 139.044758,32 141.492615,32 Z M103.484538,30 L103.484538,32.0926285 L105.92193,32.0926285 L105.92193,32.914646 L103.484538,32.914646 L103.484538,38.1612512 C103.484538,38.8637245 103.765639,39.1331232 104.499949,39.1331232 L106,39.1331232 L106,39.9551406 L105.736028,39.971259 L105.736028,39.971259 L105.149476,39.9927992 L105.149476,39.9927992 L104.499949,40 L104.499949,40 C103.140829,40 102.515513,39.4020369 102.515513,38.1163919 L102.515513,32.914646 L101,32.914646 L101,32.0926285 L102.515513,32.0926285 L102.515513,30.2092629 L103.484538,30 Z M133.881438,32 L133.881438,40 L133.118562,40 L133.118562,32 L133.881438,32 Z M124.448198,33 C122.604632,33 122,33.9653634 122,35.7413598 L122,36.2727066 C122,38.0489299 122.604632,39 124.448198,39 C126.306838,39 127,38.0909022 127,36.3986236 L127,35.6993874 C127,33.9231642 126.306838,33 124.448198,33 Z M141.492702,33 C139.663971,33 139,34.0071088 139,35.5594041 L139,36.4544355 C139,38.0069576 139.663971,39 141.492702,39 C143.336268,39 144,38.0069576 144,36.4544355 L144,35.5594041 C144,34.0071088 143.336268,33 141.492702,33 Z M134,30 L134,31 L133,31 L133,30 L134,30 Z M35.2348396,6 C40.745727,6 43,9.01604085 43,14.0124762 L43,15.1397041 L31.0077265,15.1397041 L31.0077265,15.4139932 C31.0077265,18.3386803 32.1976118,19.7096701 35.2348396,19.7096701 C37.8617336,19.7096701 38.9454866,18.6047494 39.0756,17.4879435 L39.1175369,16.9068639 L43,16.9068639 C42.906111,20.1666667 40.557949,23 35.172325,23 C29.4734254,23 27,19.5267347 27,14.9569966 L27,14.0430034 C27,9.47303744 29.6298291,6 35.2348396,6 Z M105.91593,0 L105.91593,9.76403068 L106.129822,9.76403068 C106.894799,7.16013464 108.546682,5.70335285 111.545052,5.70335285 C115.827915,5.70335285 118,9.05105362 118,13.9795423 L118,14.7235788 C118,19.6522992 115.827915,23 111.545052,23 C108.546682,23 106.894799,21.5429864 106.129822,18.9393222 L105.91593,18.9393222 L105.91593,22.6279817 L102,22.6279817 L102,0 L105.91593,0 Z M137.234719,6 C142.745526,6 145,9.01604085 145,14.0124762 L145,15.1397041 L133.007668,15.1397041 L133.007668,15.4139932 C133.007668,18.3386803 134.197536,19.7096701 137.234719,19.7096701 C139.958866,19.7096701 141.023472,18.5213878 141.085986,17.3638605 L141.117594,16.9068639 L145,16.9068639 C144.906112,20.1666667 142.557751,23 137.172205,23 C131.473623,23 129,19.5267347 129,14.9569966 L129,14.0430034 C129,9.47303744 131.630259,6 137.234719,6 Z M91.2038658,6 C94.6204807,6 96.0492765,7.89933989 96.297783,10.3590758 L96.4218039,10.3590758 L97.0741913,6.31127941 L99,6.31127941 L96.3909148,22.6887206 L94.4651061,22.6887206 L95.1174936,18.6099592 L94.9934726,18.6099592 C93.9680933,21.1006601 91.9182637,23 88.5016487,23 C84.0292725,23 82.5372856,19.7133648 83.1205421,15.3060924 L83.3148319,13.9396039 C83.9981085,9.39380701 86.638315,6 91.2038658,6 Z M48.3443974,6 L52.720339,18.0335929 L52.940678,18.0335929 L56.7815443,6 L61,6 L54.7351695,23 L50.5480226,23 L44,6 L48.3443974,6 Z M17.4366553,6 C20.9714076,6 23,7.5878494 23,11.8845885 L23,23 L19.0655512,23 L19.0655512,13.2235507 C19.0655512,10.3277045 17.9898869,9.54937891 15.5923968,9.54937891 C13.2562747,9.54937891 11.9344488,10.3277045 11.9344488,13.2235507 L11.9344488,23 L8,23 L8,6.37344728 L11.9344488,6.37344728 L11.9344488,9.73633537 L12.1498115,9.73633537 C12.979544,7.36969473 14.239772,6 17.4366553,6 Z M4,6 L4,23 L0,23 L0,6 L4,6 Z M76.7080245,2 L76.7080245,6.36599518 L80.9683819,6.36599518 L80.9683819,9.6557806 L76.7080245,9.6557806 L76.7080245,18.264769 C76.7080245,19.1257828 77.0579629,19.4947887 77.9798794,19.4947887 L81,19.4947887 L81,22.7845741 C79.9192799,22.9075761 78.6792808,23 77.3441897,23 C74.0057487,23 72.606946,21.6469783 72.606946,18.4185789 L72.606946,9.6557806 L70,9.6557806 L70,6.36599518 L72.606946,6.36599518 L72.606946,2.86101379 L76.7080245,2 Z M126,0 L126,23 L122,23 L122,0 L126,0 Z M68,6 L68,23 L64,23 L64,6 L68,6 Z M91.43423,8 C87.6543986,8 86.0253564,9.95651889 85.398816,13.6165642 L85.165061,15.0909503 C84.5756004,18.9393781 85.4753401,21 89.3240074,21 C93.2341736,21 95.0345813,19.0304678 95.6240419,15.3635397 L95.8414925,13.8485498 C96.4622827,10.000122 95.3137628,8 91.43423,8 Z M110.091446,9 C107.068585,9 106,10.2120731 106,13.3635993 L106,14.8181324 C106,17.7879269 107.068585,19 110.091446,19 C112.931415,19 114,17.7879269 114,14.5455349 L114,13.4544651 C114,10.2120731 112.931415,9 110.091446,9 Z M137.109052,9 C134.338648,9 133.186913,10.2991628 133,13 L141,13 C140.813553,10.2991628 139.848497,9 137.109052,9 Z M35.1090518,9 C32.3384154,9 31.1866799,10.2991628 31,13 L39,13 C38.8130874,10.2991628 37.8482644,9 35.1090518,9 Z M68,0 L68,4 L64,4 L64,0 L68,0 Z M4,0 L4,4 L0,4 L0,0 L4,0 Z" id="Shape"></path>
        </g>
    </g>
</svg>