<?xml version="1.0" encoding="UTF-8"?>
<svg width="91px" height="66px" viewBox="0 0 91 66" version="1.1" xmlns="http://www.w3.org/2000/svg" xmlns:xlink="http://www.w3.org/1999/xlink">
    <title>Group 8</title>
    <g id="1.-IS_landingpage" stroke="none" stroke-width="1" fill="none" fill-rule="evenodd">
        <g id="1.1.0.Desktop_HD" transform="translate(-675, -2926)" fill="#FFFFFF">
            <g id="Group-8" transform="translate(675, 2926)">
                <g id="icons/-instagram" transform="translate(-0, 0)">
                    <path d="M61.3293653,47.9005965 L61.3293653,65.4309046 L59.8436315,65.4309046 L59.8436315,62.284719 L59.7478514,62.284719 C59.7371461,62.3255964 59.7260715,62.3662675 59.714623,62.4067224 L59.6791507,62.5274292 C59.5815402,62.8475333 59.4596853,63.1531837 59.311111,63.4394028 L59.2541383,63.5458144 C58.5553202,64.8115899 57.3091665,65.6712798 55.2901228,65.6712798 C51.7673485,65.6712798 50.1614063,63.0294418 50.1614063,59.5234859 L50.1614063,58.7067385 C50.1614063,55.2007825 51.7673485,52.5589446 55.2901228,52.5589446 C57.8139274,52.5589446 59.1300915,53.9020486 59.6791507,55.6815996 L59.714623,55.800873 C59.7260715,55.8408397 59.7371461,55.881012 59.7478514,55.9213799 L59.8436315,55.9213799 L59.8436315,47.9005965 L61.3293653,47.9005965 Z M5.08073859,52.5590327 C8.86184148,52.5590327 9.99641346,54.2196762 10.1077704,56.7498719 L10.1133235,56.9058616 L8.62741398,56.9058616 L8.6035129,56.5455629 C8.60152718,56.4732643 8.59815718,56.4023958 8.59333725,56.3329626 L8.58501171,56.2298897 C8.46714422,54.9549496 7.82799648,54.1854462 6.23482551,53.9542653 L6.10532837,53.9369198 L5.9717115,53.921875 L5.83392566,53.9091345 C5.6007811,53.8898226 5.35006066,53.8801277 5.08073859,53.8801277 C2.92384116,53.8801277 1.84530457,54.5524739 1.84530457,55.9212918 L1.84530457,56.2574649 C1.84530457,57.3238437 2.39637959,57.7984038 3.60552774,58.0389645 L3.73296388,58.06303 L3.86512128,58.0855141 C3.88754242,58.0891346 3.91016137,58.0926928 3.93297868,58.0961907 L6.8778895,58.538652 L7.03698833,58.5645674 C7.16798825,58.5868807 7.29503673,58.6109965 7.4181685,58.6369879 L7.56404882,58.6690827 C9.55611446,59.1256448 10.4727186,60.107149 10.4727186,61.9486339 L10.4727186,62.4292082 C10.4727186,64.4464228 8.45975488,65.6711917 5.36807888,65.6711917 C2.34845762,65.6711917 0.0717032634,64.6385469 4.73695157e-16,61.2285649 L1.4857338,61.2285649 L1.4857338,61.5883353 C1.51944136,63.1014664 2.31620697,63.849477 3.55570297,64.1621016 L3.66302225,64.1878394 C3.68108702,64.1919539 3.69924026,64.1959815 3.71748106,64.1999231 L3.82796901,64.2225487 C3.86514355,64.2297518 3.90266082,64.2366187 3.94051336,64.2431571 L4.05506929,64.2617946 C4.09358488,64.2676837 4.13242827,64.273252 4.17159197,64.2785072 L4.29003658,64.293341 L4.41035829,64.3063424 L4.53251227,64.3175572 C4.55302147,64.3192801 4.57360514,64.3209304 4.59426235,64.3225092 L4.71908069,64.331131 C4.74002834,64.3324274 4.76104767,64.3336542 4.78213773,64.3348123 L4.90951957,64.3409448 L5.03855436,64.3454754 C5.06019541,64.3460996 5.08190348,64.3466589 5.10367761,64.3471544 L5.2351078,64.3493688 L5.36807888,64.3500967 L5.44957024,64.3498336 L5.60992125,64.3477276 L5.76675127,64.3435121 C5.79259539,64.3426335 5.81829219,64.3416669 5.84384138,64.3406122 L5.99536274,64.3332257 L6.14332689,64.3237208 L6.28771935,64.3120937 C6.31148631,64.3099788 6.33510385,64.3077754 6.35857167,64.3054832 L6.49757944,64.2906662 L6.63297931,64.273718 C8.16927688,64.0665459 8.98698476,63.4358887 8.98698476,62.3570076 L8.98698476,62.0449601 C8.98698476,61.0196466 8.62581617,60.486453 7.61216243,60.175471 L7.50681834,60.1446012 C7.47094632,60.1345596 7.43431318,60.1247629 7.39690757,60.1152004 L7.28236203,60.0872055 C7.26288109,60.0826534 7.2432042,60.0781571 7.22332994,60.0737156 L7.10170457,60.0477112 L6.97527422,60.0229551 C6.93232237,60.014904 6.88855834,60.0070505 6.84397079,59.999384 L6.70772621,59.976935 C6.68460324,59.9732835 6.66127154,59.9696761 6.63772971,59.9661115 L3.69060915,59.5235739 L3.5465533,59.49947 L3.40533595,59.4735046 L3.26698144,59.4456447 C1.41862953,59.0565967 0.359570777,58.1405163 0.359570777,56.3293133 L0.359570777,55.8490912 C0.359570777,54.3579408 1.34061773,53.3581811 2.82289056,52.8816296 L2.95303549,52.8415099 C3.4347801,52.6992452 3.96606513,52.6102632 4.53133808,52.5755953 L4.68633442,52.5674878 C4.81618079,52.5618551 4.94770971,52.5590327 5.08073859,52.5590327 Z M33.3612262,52.799355 L33.3612262,60.6760894 C33.3612262,63.0102541 34.1944214,63.9107005 35.6827968,64.1686068 L35.7942424,64.1865477 C35.8317886,64.1921442 35.8697316,64.1973608 35.9080686,64.2022096 L36.0242593,64.2156641 C36.0438206,64.2177265 36.0634797,64.2196999 36.0832363,64.2215858 L36.2029436,64.231863 C36.2432343,64.2349467 36.2839124,64.2376922 36.3249752,64.2401114 L36.4493149,64.2464025 L36.5759468,64.2508076 L36.7048547,64.2533983 C36.7482016,64.2539674 36.7919251,64.2542459 36.8360226,64.2542459 C36.9007348,64.2542459 36.9648861,64.2533383 37.028452,64.251508 L37.1547959,64.246613 C39.1426498,64.1494912 40.5269833,63.1172448 40.5269833,60.6760894 L40.5269833,52.799355 L42.0127171,52.799355 L42.0127171,65.4309398 L40.5269833,65.4309398 L40.5269833,62.741379 L40.4308517,62.741379 L40.3932722,62.8512613 L40.3540034,62.9599471 L40.3129885,63.0673779 C40.2571127,63.2097562 40.196429,63.3486318 40.1303313,63.4833803 L40.0797334,63.5836581 C40.0711281,63.6002388 40.0624358,63.6167527 40.0536553,63.6331984 L39.9999055,63.731045 C39.9633545,63.795718 39.9253553,63.8592616 39.8858321,63.921598 L39.8253948,64.0141873 C39.8151283,64.0294647 39.8047641,64.0446641 39.7943011,64.0597845 L39.7303283,64.1495476 C39.0568289,65.067088 37.9944365,65.6711389 36.2609906,65.6711389 C33.6246654,65.6711389 31.899042,64.5421679 31.899042,61.0841109 L31.899042,52.799355 L33.3612262,52.799355 Z M20.8749465,49.4375362 L20.8749465,52.7994431 L24.6135335,52.7994431 L24.6135335,54.1200099 L20.8749465,54.1200099 L20.8749465,62.5491669 C20.8749465,63.6776096 21.3060448,64.110285 22.4322078,64.110285 L24.7332147,64.110285 L24.7332147,65.4308517 C24.619054,65.4393666 24.5003999,65.4471247 24.3776513,65.454128 L24.1268133,65.4671286 L23.8657658,65.4781196 C23.7771273,65.4814488 23.6869053,65.4844436 23.5952182,65.4871046 L23.3158794,65.4940869 L23.0284587,65.49907 C22.9313836,65.5003982 22.8330796,65.5013938 22.7336651,65.5020573 L22.4322078,65.5030523 C20.3475409,65.5030523 19.3886855,64.5422559 19.3886855,62.4769663 L19.3886855,54.1200099 L17.0641289,54.1200099 L17.0641289,52.7994431 L19.3886855,52.7994431 L19.3886855,49.7737092 L20.8749465,49.4375362 Z M71.5876946,52.799355 L71.5876946,65.4309398 L70.1255105,65.4309398 L70.1255105,52.799355 L71.5876946,52.799355 Z M55.69732,53.9518881 C53.0612409,53.9518881 51.984137,55.2354129 51.7635916,57.6217327 L51.7498735,57.786143 C51.7353983,57.9799439 51.726242,58.1806966 51.7220509,58.3883104 L51.7196664,58.5679431 L51.7196664,59.6622741 L51.7220509,59.8418502 C51.726242,60.0493656 51.7353983,60.249909 51.7498735,60.4434058 L51.7635916,60.6075329 C51.984137,62.9893687 53.0612409,64.2542107 55.69732,64.2542107 C58.7172928,64.2542107 59.8436315,62.6932688 59.8436315,59.7874584 L59.8436315,58.586815 C59.8436315,55.5369556 58.7172928,53.9518881 55.69732,53.9518881 Z M71.8511338,48.4766517 L71.8511338,50.4461435 L69.8861481,50.4461435 L69.8861481,48.4766517 L71.8511338,48.4766517 Z M49.2432355,10.5979225 C56.0763104,10.5979225 59.9976705,13.6340462 59.9976705,21.8502995 L59.9976705,43.1049263 L52.3923795,43.1049263 L52.3923795,24.4104275 C52.3923795,18.8733451 50.3129849,17.3849559 45.6782828,17.3849559 C41.1625589,17.3849559 38.6076029,18.8733451 38.6076029,24.4104275 L38.6076029,43.1049263 L31.0023119,43.1049263 L31.0023119,11.3120041 L38.6076029,11.3120041 L38.6076029,17.7422609 L39.0235873,17.7422609 C40.6279478,13.2172197 43.0639256,10.5979225 49.2432355,10.5979225 Z M38.607638,-3.73969861e-16 L38.607638,6.78738562 L31.0021713,6.78738562 L31.0021713,-3.73969861e-16 L38.607638,-3.73969861e-16 Z M85.3679547,64.2541931 C88.2137219,64.2541931 89.3293895,62.7154387 89.4338419,60.2758329 L89.439101,60.1205606 C89.441065,60.0423316 89.4420357,59.9632175 89.4420357,59.8832386 L89.4420357,58.3464222 C89.4420357,58.2664592 89.441065,58.1873388 89.439101,58.1090825 L89.4338419,57.9537284 C89.3293895,55.5123982 88.2137219,53.9518705 85.3679547,53.9518705 C82.3964871,53.9518705 81.3177748,55.680987 81.3177748,58.3464222 L81.3177748,59.8832386 C81.3177748,62.5492021 82.3964871,64.2541931 85.3679547,64.2541931 Z M91,58.6107469 L91,59.5953167 C91,63.0294242 89.3223545,65.6712622 85.3679547,65.6712622 C81.437456,65.6712622 79.7599862,63.0294242 79.7599862,59.5953167 L79.7599862,58.6107469 C79.7599862,55.2007649 81.437456,52.558927 85.3679547,52.558927 C89.3223545,52.558927 91,55.2007649 91,58.6107469 Z" id="Shape"></path>
                </g>
            </g>
        </g>
    </g>
</svg>