<?xml version="1.0" encoding="UTF-8"?>
<svg width="40px" height="40px" viewBox="0 0 40 40" version="1.1" xmlns="http://www.w3.org/2000/svg" xmlns:xlink="http://www.w3.org/1999/xlink">
    <title>icons/ twitter</title>
    <g id="1.-IS_landingpage" stroke="none" stroke-width="1" fill="none" fill-rule="evenodd">
        <g id="1.1.0.Desktop_HD" transform="translate(-1336, -42)" fill="#FFFFFF" fill-rule="nonzero">
            <g id="icons/-twitter" transform="translate(1341.7866, 49.928)">
                <g id="twitter-2" transform="translate(0.212, 0.2079)">
                    <path d="M28.5526605,2.56674599 C27.4829735,3.03730689 26.3431724,3.34921124 25.154831,3.50065612 C26.3773305,2.7686725 27.3103853,1.61841253 27.7490469,0.231970644 C26.6092459,0.913472635 25.3507905,1.39485103 24.0096366,1.66348541 C22.927365,0.507816688 21.3848582,-0.207940695 19.7021236,-0.207940695 C16.4373308,-0.207940695 13.8089568,2.44955649 13.8089568,5.70742448 C13.8089568,6.17618246 13.8485083,6.62691129 13.9455891,7.05600514 C9.04300652,6.8162174 4.70493104,4.45980707 1.79070793,0.870202668 C1.2819324,1.75543409 0.983498694,2.7686725 0.983498694,3.85943627 C0.983498694,5.90754808 2.03520784,7.72308381 3.60288368,8.77418344 C2.65544656,8.75615429 1.72598737,8.48030824 0.938553859,8.04580565 C0.938553859,8.0638348 0.938553859,8.0872727 0.938553859,8.1107106 C0.938553859,10.9845576 2.98264496,13.3716175 5.66315492,13.9215067 C5.18314409,14.0531195 4.6599862,14.1162215 4.1170526,14.1162215 C3.73951598,14.1162215 3.35838378,14.0945866 3.00062289,14.0152583 C3.76468509,16.3572453 5.93282393,18.0790294 8.51085968,18.1349198 C6.50452224,19.7088649 3.95704898,20.6571983 1.1992339,20.6571983 C0.715627477,20.6571983 0.251796779,20.6355633 -0.212033919,20.5760671 C2.4001599,22.2653988 5.49596014,23.2299585 8.83446249,23.2299585 C19.6859435,23.2299585 25.6186617,14.2153819 25.6186617,6.40154688 C25.6186617,6.14012415 25.6096727,5.88771601 25.5970882,5.63711078 C26.7674517,4.8041639 27.7508447,3.76388176 28.5526605,2.56674599 Z" id="Path"></path>
                </g>
            </g>
        </g>
    </g>
</svg>